<?xml version="1.0" encoding="utf-8"?>
<!-- Generator: Adobe Illustrator 26.5.0, SVG Export Plug-In . SVG Version: 6.00 Build 0)  -->
<svg version="1.1" id="Camada_1" xmlns="http://www.w3.org/2000/svg" xmlns:xlink="http://www.w3.org/1999/xlink" x="0px" y="0px"
	 viewBox="0 0 2000 264.7" style="enable-background:new 0 0 2000 264.7;" xml:space="preserve">
<style type="text/css">
	.st0{fill:#FFFFFF;}
	.st1{fill:#001B26;}
	.st2{fill:#1F8CDD;}
	.st3{fill:#00426B;}
	.st4{fill:url(#SVGID_1_);}
	.st5{fill:url(#SVGID_00000083056994605554971590000003406739298882770316_);}
	.st6{fill:url(#SVGID_00000066506574251809286260000004170094431486513585_);}
</style>
<g>
	<path class="st3" d="M1929.92,0v101.58h-196.83V0h-70.06v264.7h70.06V163.48h196.83V264.7H2000V0H1929.92z M1545.12,187.95
		c-6.42,6.92-16.68,10.39-30.77,10.39h-96.37c-9.41,0-17.06-1.87-22.98-5.57c-5.94-3.7-10.64-8.64-14.09-14.83
		c-3.47-6.17-5.88-13.23-7.23-21.13c-1.37-7.9-2.04-16.06-2.04-24.46c0-8.41,0.67-16.56,2.04-24.46c1.35-7.9,3.76-14.9,7.23-20.96
		c3.45-6.05,8.15-10.93,14.09-14.63c5.92-3.72,13.57-5.57,22.98-5.57h96.37c14.09,0,24.6,3.7,31.52,11.12
		c6.92,7.42,11.24,17.54,12.97,30.4h74.51c-1.99-16.56-5.75-30.71-11.32-42.45c-5.55-11.74-12.22-21.63-20.01-29.65
		c-7.79-8.04-16.31-14.4-25.58-19.11c-9.27-4.68-18.72-8.33-28.36-10.93c-9.64-2.58-19.03-4.26-28.17-4.99
		C1510.77,0.37,1502.5,0,1495.07,0h-57.82c-7.92,0-16.87,0.42-26.87,1.29c-10.02,0.87-20.2,2.85-30.6,5.94
		c-10.37,3.08-20.45,7.54-30.21,13.34c-9.77,5.8-18.53,13.59-26.32,23.35c-7.79,9.77-14.03,21.88-18.72,36.34
		c-4.7,14.46-7.06,31.83-7.06,52.09s2.35,37.61,7.06,52.07c4.68,14.46,10.93,26.59,18.72,36.34c7.79,9.75,16.54,17.54,26.32,23.35
		c9.76,5.82,19.84,10.26,30.21,13.36c10.39,3.08,20.57,5.07,30.6,5.92c10.01,0.87,18.95,1.31,26.87,1.31h57.82
		c7.42,0,15.69-0.39,24.85-1.12c9.14-0.75,18.53-2.41,28.17-5.01c9.64-2.58,19.09-6.23,28.36-10.93
		c9.27-4.68,17.79-11.07,25.58-19.09c7.79-8.04,14.46-17.93,20.01-29.67c5.57-11.72,9.33-25.87,11.32-42.43h-74.51
		C1556.13,170.52,1551.56,181.03,1545.12,187.95z M1267.84,65.61V0H979.8v264.7h288.04v-65.62h-217.98v-34.86h217.98v-61.9h-217.98
		V65.61H1267.84z M683.6,0v66.72h97.13V264.7h70.06V66.72h99.34V0H683.6z"/>
	<path class="st0" d="M545.31,132.35L665.05,264.7h-95.64l-75.63-89.36l-75.63,89.36h-96.01l119.74-132.35L322.15,0h96.01
		l75.63,89.34L569.41,0h95.64L545.31,132.35z M336.97,132.35c0,20.26-2.35,37.61-7.04,52.07c-4.7,14.46-10.87,26.59-18.53,36.34
		c-7.67,9.75-16.44,17.54-26.33,23.35c-9.89,5.82-20.01,10.26-30.38,13.36c-10.39,3.08-20.59,5.05-30.6,5.92
		c-10.01,0.87-18.97,1.31-26.87,1.31h-57.45c-7.92,0-16.87-0.44-26.89-1.31c-10.01-0.87-20.2-2.83-30.58-5.92
		c-10.37-3.1-20.51-7.54-30.4-13.36c-9.89-5.8-18.66-13.59-26.32-23.35c-7.67-9.75-13.84-21.88-18.55-36.34
		C2.35,169.96,0,152.61,0,132.35s2.35-37.63,7.04-52.09c4.7-14.46,10.87-26.57,18.55-36.34c7.65-9.75,16.43-17.54,26.32-23.35
		S71.93,10.31,82.3,7.23c10.37-3.08,20.57-5.07,30.58-5.94C122.9,0.42,131.85,0,139.77,0h57.45c7.9,0,16.87,0.42,26.87,1.29
		c10.01,0.87,20.2,2.85,30.6,5.94c10.37,3.08,20.49,7.54,30.38,13.34c9.89,5.8,18.66,13.59,26.33,23.35
		c7.65,9.77,13.82,21.88,18.53,36.34C334.62,94.72,336.97,112.09,336.97,132.35z M263.21,132.35c0-8.41-0.69-16.56-2.04-24.46
		c-1.37-7.9-3.78-14.9-7.23-20.96c-3.47-6.05-8.21-10.93-14.27-14.63c-6.07-3.72-13.78-5.57-23.17-5.57h-96.01
		c-9.41,0-17.12,1.85-23.17,5.57C91.25,76,86.5,80.87,83.03,86.93c-3.45,6.05-5.86,13.05-7.23,20.96
		c-1.35,7.9-2.02,16.06-2.02,24.46c0,8.41,0.67,16.56,2.02,24.46c1.37,7.9,3.78,14.96,7.23,21.13c3.47,6.19,8.21,11.12,14.29,14.83
		c6.05,3.7,13.76,5.57,23.17,5.57h96.01c9.39,0,17.1-1.87,23.17-5.57c6.05-3.7,10.8-8.64,14.27-14.83
		c3.45-6.17,5.86-13.23,7.23-21.13C262.52,148.91,263.21,140.75,263.21,132.35z"/>
</g>
</svg>
