<svg width="221" height="82" viewBox="0 0 221 82" fill="none" xmlns="http://www.w3.org/2000/svg">
<path d="M59.9991 32.978L74.1437 17.0924C78.972 23.8226 81.8161 32.0787 81.8161 41.0008C81.8161 49.4104 79.2897 57.2273 74.9562 63.7332L59.9991 46.9342C56.6311 43.152 56.6311 36.7602 59.9991 32.978ZM21.817 32.978L7.67234 17.0924C2.84407 23.8226 0 32.0787 0 41.0008C0 49.4104 2.5264 57.2273 6.85986 63.7332L21.817 46.9342C25.185 43.152 25.185 36.7602 21.817 32.978ZM45.9392 39.9565C45.9392 34.4466 47.8768 29.235 51.3953 25.2836L66.1379 8.72624C59.1874 3.26046 50.4274 0.0016669 40.908 0.0016669C31.3887 0.0016669 22.6286 3.26046 15.679 8.72541L30.4216 25.2828C33.9401 29.235 35.8777 34.4457 35.8777 39.9557C35.8777 45.4656 33.9401 50.6772 30.4216 54.6286L14.6012 72.397C21.7131 78.3895 30.8906 81.9992 40.9089 81.9992C50.9271 81.9992 60.1047 78.3895 67.2165 72.397L51.3962 54.6286C47.8777 50.6764 45.94 45.4656 45.94 39.9557L45.9392 39.9565ZM219.689 0.583416L197.644 25.0027L197.29 25.3944L197.644 25.7862L219.689 50.2063H202.958L188.654 33.2697L188.21 32.7438L187.766 33.2697L173.462 50.2063H156.661L178.706 25.7862L179.059 25.3944L178.706 25.0027L156.66 0.583416H173.461L187.765 17.52L188.209 18.0459L188.653 17.52L202.958 0.583416H219.689ZM221 0H202.688L188.209 17.1433L173.731 0H155.349L178.273 25.3944L155.349 50.7889H173.731L188.21 33.6456L202.689 50.7889H221.001L198.076 25.3944L221 0ZM132.095 0.583416C133.583 0.583416 135.297 0.665928 137.19 0.830118C139.061 0.993475 140.992 1.36853 142.929 1.94611C144.86 2.52286 146.776 3.36548 148.62 4.45063C150.44 5.52329 152.081 6.98266 153.497 8.78875C154.914 10.6015 156.076 12.886 156.95 15.5797C157.826 18.2851 158.27 21.5872 158.27 25.3936C158.27 29.2 157.826 32.503 156.95 35.2075C156.076 37.9029 154.914 40.1882 153.497 41.9985C152.083 43.8054 150.442 45.2648 148.621 46.3366C146.777 47.4226 144.863 48.2652 142.929 48.8411C140.992 49.4204 139.061 49.7954 137.19 49.9571C135.305 50.1213 133.591 50.2038 132.095 50.2038H121.093C119.597 50.2038 117.883 50.1205 115.997 49.9571C114.127 49.7954 112.196 49.4204 110.258 48.8411C108.322 48.2644 106.408 47.4217 104.566 46.3366C102.744 45.2648 101.104 43.8054 99.6896 41.9985C98.2718 40.1882 97.11 37.9029 96.2368 35.2075C95.3612 32.5055 94.9171 29.2042 94.9171 25.3936C94.9171 21.5831 95.3612 18.2818 96.2368 15.5797C97.1092 12.886 98.2709 10.6007 99.6896 8.78875C101.104 6.98266 102.745 5.52245 104.566 4.45063C106.409 3.36548 108.324 2.52286 110.257 1.94611C112.194 1.36853 114.126 0.992641 115.996 0.830118C117.889 0.666762 119.604 0.583416 121.093 0.583416H132.095ZM117.402 38.6397H135.784C137.682 38.6397 139.277 38.2521 140.524 37.4862C141.764 36.7261 142.752 35.6967 143.461 34.4282C144.153 33.1906 144.64 31.7637 144.91 30.1876C145.175 28.6407 145.309 27.028 145.309 25.3944C145.309 23.7609 145.175 22.149 144.91 20.6013C144.638 19.0244 144.15 17.6083 143.457 16.3915C142.747 15.1488 141.76 14.1337 140.523 13.3736C139.275 12.6085 137.68 12.2209 135.783 12.2209H117.4C115.502 12.2209 113.907 12.6085 112.66 13.3736C111.422 14.1328 110.435 15.1488 109.726 16.3915C109.033 17.6075 108.544 19.0244 108.273 20.6013C108.009 22.1431 107.874 23.7559 107.874 25.3944C107.874 27.033 108.008 28.6474 108.273 30.1876C108.542 31.7645 109.03 33.1914 109.722 34.4282C110.43 35.6967 111.419 36.7261 112.658 37.4862C113.905 38.2513 115.5 38.6397 117.399 38.6397M132.095 0H121.093C119.578 0 117.864 0.0833452 115.947 0.248369C114.031 0.415892 112.08 0.79428 110.092 1.38686C108.105 1.98028 106.164 2.83374 104.273 3.94806C102.379 5.06239 100.699 6.55677 99.2331 8.42953C97.7661 10.3031 96.5828 12.626 95.6846 15.4005C94.7857 18.1751 94.3366 21.5072 94.3366 25.3953C94.3366 29.2833 94.7857 32.6155 95.6846 35.39C96.5828 38.1646 97.7661 40.4883 99.2331 42.361C100.699 44.2346 102.379 45.7282 104.273 46.8425C106.164 47.9577 108.105 48.8111 110.092 49.4037C112.08 49.9971 114.031 50.3763 115.947 50.5422C117.864 50.7089 119.578 50.7914 121.093 50.7914H132.095C133.608 50.7914 135.324 50.7089 137.24 50.5422C139.156 50.3763 141.108 49.9979 143.096 49.4037C145.083 48.8111 147.023 47.9577 148.915 46.8425C150.807 45.729 152.488 44.2355 153.955 42.361C155.421 40.4883 156.604 38.1646 157.503 35.39C158.401 32.6155 158.851 29.2842 158.851 25.3953C158.851 21.5064 158.401 18.1751 157.503 15.4005C156.603 12.626 155.42 10.3031 153.955 8.42953C152.488 6.55677 150.807 5.06322 148.915 3.94806C147.023 2.83457 145.082 1.98028 143.096 1.38686C141.108 0.79428 139.156 0.415892 137.24 0.248369C135.324 0.0833452 133.609 0 132.095 0ZM117.403 38.0562C115.604 38.0562 114.125 37.7004 112.967 36.9886C111.807 36.2777 110.896 35.3292 110.234 34.1432C109.571 32.958 109.11 31.607 108.851 30.0884C108.59 28.5716 108.461 27.0063 108.461 25.3936C108.461 23.7809 108.59 22.2173 108.851 20.6988C109.11 19.1819 109.572 17.8417 110.234 16.6799C110.896 15.5189 111.807 14.5812 112.967 13.8703C114.126 13.1594 115.604 12.8035 117.403 12.8035H135.785C137.583 12.8035 139.061 13.1594 140.221 13.8703C141.379 14.5821 142.29 15.5189 142.954 16.6799C143.616 17.8425 144.077 19.1819 144.337 20.6988C144.597 22.2173 144.727 23.7817 144.727 25.3936C144.727 27.0055 144.597 28.5716 144.337 30.0884C144.077 31.607 143.616 32.958 142.954 34.1432C142.291 35.3292 141.38 36.2777 140.221 36.9886C139.061 37.7004 137.582 38.0562 135.785 38.0562H117.403ZM94.3358 56.4755H119.982V62.9106H110.423V82.0008H103.681V62.9106H94.3358V56.4755ZM150.551 56.4755V62.8031H129.577V66.3419H150.551V72.312H129.577V75.6724H150.551V82H122.836V56.4747L150.551 56.4755ZM164.998 62.9106C164.094 62.9106 163.357 63.0898 162.786 63.4465C162.216 63.8041 161.764 64.275 161.431 64.8584C161.097 65.4426 160.866 66.1161 160.736 66.8787C160.605 67.6413 160.539 68.4281 160.539 69.2382C160.539 70.0483 160.605 70.8351 160.736 71.5977C160.866 72.3603 161.098 73.0396 161.431 73.6355C161.764 74.2314 162.216 74.7081 162.786 75.0657C163.357 75.4232 164.094 75.6024 164.998 75.6024H174.272C175.627 75.6024 176.613 75.269 177.232 74.6014C177.85 73.9347 178.29 72.9212 178.552 71.5627H185.722C185.531 73.1596 185.169 74.5248 184.634 75.6558C184.099 76.7876 183.457 77.7411 182.708 78.5153C181.959 79.2904 181.139 79.9039 180.247 80.3564C179.355 80.809 178.445 81.1607 177.518 81.4107C176.591 81.6608 175.687 81.8216 174.807 81.8933C173.927 81.965 173.131 82.0008 172.417 82.0008H166.853C166.092 82.0008 165.23 81.9592 164.267 81.8758C163.304 81.7925 162.322 81.6024 161.324 81.3041C160.325 81.0065 159.355 80.5773 158.416 80.0172C157.477 79.458 156.633 78.707 155.883 77.7652C155.134 76.8243 154.534 75.6558 154.082 74.2614C153.63 72.867 153.404 71.1926 153.404 69.2382C153.404 67.2837 153.63 65.6093 154.082 64.215C154.534 62.8206 155.134 61.6538 155.883 60.7111C156.633 59.7702 157.477 59.0192 158.416 58.4591C159.355 57.8999 160.325 57.4707 161.324 57.1723C162.322 56.8748 163.304 56.6839 164.267 56.6006C165.23 56.5172 166.091 56.4755 166.853 56.4755H172.417C173.131 56.4755 173.927 56.5114 174.807 56.583C175.687 56.6547 176.591 56.8156 177.518 57.0656C178.445 57.3157 179.355 57.6682 180.247 58.1199C181.138 58.5725 181.959 59.1868 182.708 59.961C183.457 60.7353 184.099 61.6896 184.634 62.8206C185.17 63.9524 185.531 65.3176 185.722 66.9137H178.552C178.385 65.6743 177.969 64.6975 177.304 63.9824C176.638 63.2673 175.627 62.9098 174.272 62.9098L164.998 62.9106ZM214.258 56.4755H221V82.0008H214.258V72.2411H195.318V82.0008H188.576V56.4755H195.318V66.2703H214.258V56.4755Z" fill="#004662"/>
</svg>
