<svg width="385" height="52" viewBox="0 0 385 52" fill="none" xmlns="http://www.w3.org/2000/svg">
<path d="M371.51 0.173096V19.727H333.619V0.173096H320.133V51.1269H333.619V31.6435H371.51V51.1269H385V0.173096H371.51ZM297.436 36.3529C296.2 37.6852 294.226 38.3532 291.513 38.3532H272.961C271.15 38.3532 269.677 37.9932 268.537 37.2807C267.394 36.5681 266.489 35.6181 265.824 34.4268C265.156 33.2393 264.693 31.881 264.433 30.3594C264.169 28.8379 264.039 27.2681 264.039 25.65C264.039 24.0319 264.169 22.4621 264.433 20.9406C264.693 19.419 265.156 18.0719 265.824 16.9066C266.489 15.7413 267.394 14.8024 268.537 14.0898C269.677 13.3736 271.15 13.0173 272.961 13.0173H291.513C294.226 13.0173 296.248 13.7299 297.581 15.1586C298.913 16.5874 299.744 18.5358 300.078 21.0111H314.422C314.039 17.8232 313.316 15.0993 312.243 12.8392C311.174 10.5791 309.89 8.67529 308.391 7.13146C306.892 5.58392 305.251 4.35925 303.466 3.45373C301.681 2.55193 299.863 1.85053 298.007 1.34952C296.152 0.852232 294.344 0.529364 292.585 0.388341C290.823 0.243607 289.231 0.173096 287.802 0.173096H276.672C275.147 0.173096 273.425 0.254741 271.499 0.421741C269.569 0.588742 267.61 0.970989 265.609 1.56477C263.613 2.15855 261.672 3.01582 259.794 4.13287C257.912 5.24992 256.227 6.74922 254.728 8.62705C253.229 10.5086 252.026 12.8392 251.125 15.6225C250.219 18.4059 249.766 21.7496 249.766 25.65C249.766 29.5504 250.219 32.8904 251.125 35.6738C252.026 38.4571 253.229 40.7914 254.728 42.6692C256.227 44.5471 257.912 46.0464 259.794 47.1634C261.672 48.2842 263.613 49.1377 265.609 49.7352C267.61 50.329 269.569 50.7113 271.499 50.8745C273.425 51.0415 275.147 51.1269 276.672 51.1269H287.802C289.231 51.1269 290.823 51.0527 292.585 50.9117C294.344 50.7669 296.152 50.4478 298.007 49.9468C299.863 49.4495 301.681 48.7481 303.466 47.8426C305.251 46.9407 306.892 45.7124 308.391 44.1685C309.89 42.621 311.174 40.7172 312.243 38.4571C313.316 36.2007 314.039 33.4768 314.422 30.2889H300.078C299.555 32.998 298.675 35.0206 297.436 36.3529ZM244.059 12.8021V0.173096H188.611V51.1269H244.059V38.4942H202.097V31.7845H244.059V19.8681H202.097V12.8021H244.059ZM131.593 0.173096V13.0173H150.29V51.1269H163.776V13.0173H182.899V0.173096H131.593Z" fill="#004662"/>
<path d="M104.973 25.65L128.023 51.1269H109.612L95.0532 33.9258L80.4944 51.1269H62.013L85.0628 25.65L62.013 0.173096H80.4944L95.0532 17.3705L109.612 0.173096H128.023L104.973 25.65ZM64.8668 25.65C64.8668 29.5504 64.4141 32.8904 63.5123 35.6738C62.6067 38.4571 61.4192 40.7914 59.9459 42.6692C58.4688 44.5471 56.7803 46.0464 54.8765 47.1634C52.9727 48.2842 51.0243 49.1377 49.0277 49.7352C47.0274 50.329 45.0642 50.7075 43.1382 50.8745C41.2121 51.0415 39.4864 51.1269 37.9649 51.1269H26.9057C25.3804 51.1269 23.6584 51.0415 21.7287 50.8745C19.8026 50.7075 17.8394 50.329 15.8428 49.7352C13.8462 49.1377 11.8942 48.2842 9.99036 47.1634C8.08655 46.0464 6.39799 44.5471 4.92467 42.6692C3.44764 40.7914 2.26008 38.4571 1.35456 35.6738C0.452758 32.8904 0 29.5504 0 25.65C0 21.7496 0.452758 18.4059 1.35456 15.6225C2.26008 12.8392 3.44764 10.5086 4.92467 8.62705C6.39799 6.74922 8.08655 5.24992 9.99036 4.13287C11.8942 3.01582 13.8462 2.15855 15.8428 1.56477C17.8394 0.970989 19.8026 0.588742 21.7287 0.421741C23.6584 0.254741 25.3804 0.173096 26.9057 0.173096H37.9649C39.4864 0.173096 41.2121 0.254741 43.1382 0.421741C45.0642 0.588742 47.0274 0.970989 49.0277 1.56477C51.0243 2.15855 52.9727 3.01582 54.8765 4.13287C56.7803 5.24992 58.4688 6.74922 59.9459 8.62705C61.4192 10.5086 62.6067 12.8392 63.5123 15.6225C64.4141 18.4059 64.8668 21.7496 64.8668 25.65ZM50.668 25.65C50.668 24.0319 50.5344 22.4621 50.2747 20.9406C50.0112 19.419 49.5473 18.0719 48.883 16.9066C48.215 15.7413 47.3021 14.8024 46.1368 14.0898C44.9678 13.3736 43.4833 13.0173 41.676 13.0173H23.1946C21.3835 13.0173 19.8991 13.3736 18.7338 14.0898C17.5648 14.8024 16.6518 15.7413 15.9838 16.9066C15.3195 18.0719 14.8556 19.419 14.5922 20.9406C14.3324 22.4621 14.2025 24.0319 14.2025 25.65C14.2025 27.2681 14.3324 28.8379 14.5922 30.3594C14.8556 31.881 15.3195 33.2393 15.9838 34.4268C16.6518 35.6181 17.5648 36.5681 18.7338 37.2807C19.8991 37.9932 21.3835 38.3532 23.1946 38.3532H41.676C43.4833 38.3532 44.9678 37.9932 46.1368 37.2807C47.3021 36.5681 48.215 35.6181 48.883 34.4268C49.5473 33.2393 50.0112 31.881 50.2747 30.3594C50.5344 28.8379 50.668 27.2681 50.668 25.65Z" fill="white"/>
</svg>
