<svg width="32" height="32" viewBox="0 0 32 32" fill="none" xmlns="http://www.w3.org/2000/svg">
<path d="M25.6 4.26666H6.4C5.22133 4.26666 4.26666 5.22133 4.26666 6.4V25.6C4.26666 26.7787 5.22133 27.7333 6.4 27.7333H25.6C26.7787 27.7333 27.7333 26.7787 27.7333 25.6V6.4C27.7333 5.22133 26.7787 4.26666 25.6 4.26666ZM11.6843 23.4667H8.53759V13.3419H11.6843V23.4667ZM10.0789 11.8944C9.06453 11.8944 8.24426 11.072 8.24426 10.0597C8.24426 9.04746 9.0656 8.22613 10.0789 8.22613C11.0901 8.22613 11.9125 9.04853 11.9125 10.0597C11.9125 11.072 11.0901 11.8944 10.0789 11.8944ZM23.4709 23.4667H20.3264V18.5429C20.3264 17.3685 20.3051 15.8581 18.6912 15.8581C17.0539 15.8581 16.8021 17.1371 16.8021 18.4576V23.4667H13.6576V13.3419H16.6763V14.7253H16.7189C17.1392 13.9296 18.1653 13.0901 19.696 13.0901C22.8821 13.0901 23.4709 15.1872 23.4709 17.9136V23.4667Z" fill="white"/>
</svg>
