<?xml version="1.0" encoding="utf-8"?>
<!-- Generator: Adobe Illustrator 26.5.0, SVG Export Plug-In . SVG Version: 6.00 Build 0)  -->
<svg version="1.1" id="Camada_1" xmlns="http://www.w3.org/2000/svg" xmlns:xlink="http://www.w3.org/1999/xlink" x="0px" y="0px"
	 viewBox="0 0 2000 741.19" style="enable-background:new 0 0 2000 741.19;" xml:space="preserve">
<style type="text/css">
	.st0{fill:#FFFFFF;}
	.st1{fill:#001B26;}
	.st2{fill:#1F8CDD;}
	.st3{fill:#00426B;}
	.st4{fill:url(#SVGID_1_);}
	.st5{fill:url(#SVGID_00000178885319854271327960000001933607285325783173_);}
	.st6{fill:url(#SVGID_00000083767910762002997160000012924882358668828841_);}
</style>
<g>
	<g>
		<path class="st3" d="M670.98,155.09c43.7,60.77,69.44,135.32,69.44,215.89c0,75.93-22.87,146.52-62.08,205.27L542.98,424.56
			c-30.48-34.16-30.48-91.87,0-126.02L670.98,155.09z M415.74,361.55c0-49.76,17.54-96.81,49.38-132.49L598.53,79.54
			C535.63,30.19,456.36,0.77,370.21,0.77S204.79,30.19,141.89,79.54L275.3,229.05c31.84,35.68,49.38,82.74,49.38,132.49
			c0,49.76-17.54,96.81-49.38,132.49L132.13,654.48c64.36,54.11,147.41,86.7,238.08,86.7s173.71-32.6,238.08-86.7L465.12,494.04
			C433.27,458.36,415.74,411.3,415.74,361.55z M197.44,298.53l-128-143.44C25.74,215.86,0,290.41,0,370.98
			c0,75.93,22.87,146.52,62.08,205.27l135.36-151.69C227.92,390.4,227.92,332.69,197.44,298.53z"/>
		<path class="st3" d="M1111.64,510.71h250.82v57.14h-189.81v31.96h189.81v53.91h-189.81v30.34h189.81v57.14h-250.82V510.71z
			 M853.72,568.81h84.57v172.38h61.01V568.81h86.51v-58.1h-232.1V568.81z M1460.91,586.4c3.01-5.27,7.1-9.52,12.27-12.75
			c5.17-3.23,11.83-4.84,20.01-4.84h83.93c12.27,0,21.41,3.23,27.44,9.68c6.02,6.46,9.79,15.28,11.3,26.47h64.88
			c-1.73-14.42-5-26.74-9.85-36.96c-4.84-10.22-10.65-18.83-17.43-25.82c-6.78-6.99-14.2-12.53-22.27-16.62
			c-8.07-4.09-16.3-7.26-24.69-9.52c-8.39-2.26-16.57-3.71-24.53-4.36c-7.96-0.65-15.17-0.97-21.63-0.97h-50.36
			c-6.89,0-14.69,0.38-23.4,1.13c-8.71,0.76-17.59,2.48-26.63,5.17c-9.04,2.69-17.81,6.57-26.31,11.62
			c-8.5,5.06-16.14,11.84-22.92,20.34c-6.78,8.5-12.22,19.05-16.3,31.63c-4.09,12.59-6.13,27.71-6.13,45.35
			c0,17.65,2.04,32.77,6.13,45.35c4.09,12.59,9.52,23.14,16.3,31.63c6.78,8.5,14.42,15.28,22.92,20.34
			c8.5,5.06,17.27,8.93,26.31,11.62c9.04,2.69,17.92,4.41,26.63,5.17c8.72,0.76,16.51,1.13,23.4,1.13h50.36
			c6.46,0,13.67-0.32,21.63-0.97c7.96-0.65,16.14-2.1,24.53-4.36c8.39-2.26,16.62-5.43,24.69-9.52c8.07-4.09,15.49-9.63,22.27-16.62
			c6.78-6.99,12.59-15.6,17.43-25.82c4.84-10.22,8.12-22.54,9.85-36.96h-64.88c-2.37,12.27-6.35,21.42-11.94,27.44
			c-5.6,6.03-14.53,9.04-26.79,9.04h-83.93c-8.18,0-14.85-1.61-20.01-4.84c-5.17-3.23-9.26-7.53-12.27-12.91
			c-3.01-5.38-5.11-11.51-6.29-18.4c-1.19-6.89-1.78-13.99-1.78-21.31c0-7.31,0.59-14.41,1.78-21.3
			C1455.8,597.76,1457.9,591.68,1460.91,586.4z M1938.99,599.15h-171.41v-88.45h-61.01v230.48h61.01v-88.13h171.41v88.13H2000
			V510.71h-61.01V599.15z"/>
		<path class="st3" d="M1834.28,0.75l-131.03,154.8L1572.22,0.75h-166.36l207.47,229.3l-207.47,229.31h166.36l131.03-154.8
			l131.03,154.8H2000l-207.47-229.31L2000,0.75H1834.28z M1788.63,233.59l199.5,220.5h-151.4l-129.45-152.93l-4.02-4.75l-4.02,4.75
			l-129.45,152.93h-152.04l199.5-220.5l3.2-3.53l-3.2-3.53l-199.5-220.5h152.04l129.45,152.93l4.02,4.75l4.02-4.75L1836.73,6.02
			h151.4l-199.5,220.5l-3.2,3.53L1788.63,233.59z M1425.38,319.55c8.13-25.05,12.2-55.13,12.2-90.25c0-35.11-4.07-65.2-12.2-90.25
			c-8.14-25.05-18.85-46.02-32.12-62.95c-13.28-16.91-28.48-30.4-45.6-40.46c-17.13-10.06-34.68-17.77-52.67-23.12
			C1277,7.17,1259.34,3.75,1242,2.24C1224.65,0.75,1209.13,0,1195.43,0h-99.56c-13.71,0-29.22,0.75-46.57,2.24
			c-17.34,1.51-35.01,4.93-52.99,10.28c-17.98,5.36-35.55,13.07-52.67,23.12c-17.13,10.06-32.34,23.56-45.6,40.46
			c-13.28,16.92-23.98,37.9-32.12,62.95c-8.14,25.05-12.2,55.14-12.2,90.25c0,35.12,4.06,65.2,12.2,90.25
			c8.13,25.05,18.84,46.03,32.12,62.95c13.27,16.92,28.47,30.41,45.6,40.46c17.12,10.07,34.68,17.78,52.67,23.12
			c17.98,5.36,35.65,8.78,52.99,10.28c17.34,1.5,32.86,2.25,46.57,2.25h99.56c13.7,0,29.22-0.75,46.57-2.25
			c17.34-1.49,35.01-4.92,52.99-10.28c17.98-5.35,35.54-13.05,52.67-23.12c17.12-10.06,32.33-23.54,45.6-40.46
			C1406.53,365.58,1417.23,344.6,1425.38,319.55z M1344.98,418.41c-16.68,9.81-34.01,17.41-51.5,22.62
			c-17.54,5.23-35.01,8.62-51.94,10.08c-17.06,1.48-32.57,2.23-46.11,2.23h-99.56c-13.54,0-29.05-0.75-46.12-2.23
			c-16.93-1.46-34.4-4.85-51.94-10.08c-17.51-5.21-34.84-12.82-51.5-22.62c-16.49-9.68-31.33-22.85-44.13-39.17
			c-12.83-16.35-23.35-36.98-31.25-61.32c-7.93-24.4-11.94-54.21-11.94-88.62s4.02-64.22,11.95-88.62
			c7.9-24.32,18.41-44.96,31.25-61.32c12.8-16.31,27.65-29.49,44.13-39.17c16.68-9.8,34.01-17.41,51.5-22.62
			c17.54-5.22,35.01-8.61,51.94-10.08c17.13-1.48,32.65-2.22,46.12-2.22h99.56c13.47,0,28.98,0.75,46.11,2.22
			c16.93,1.47,34.41,4.86,51.94,10.08c17.48,5.21,34.81,12.82,51.5,22.62c16.48,9.69,31.32,22.87,44.13,39.17
			c12.83,16.37,23.35,37,31.25,61.32c7.93,24.43,11.95,54.24,11.95,88.62s-4.02,64.19-11.94,88.62
			c-7.91,24.34-18.42,44.97-31.25,61.32C1376.31,395.55,1361.47,408.73,1344.98,418.41z M1298.27,148
			c-6.42-11.22-15.35-20.39-26.55-27.25c-11.29-6.91-25.72-10.41-42.89-10.41h-166.36c-17.18,0-31.61,3.5-42.9,10.41
			c-11.21,6.86-20.14,16.03-26.55,27.25c-6.28,10.98-10.7,23.77-13.14,38.01c-2.39,13.92-3.61,28.48-3.61,43.28
			c0,14.81,1.21,29.38,3.61,43.28c2.44,14.24,6.85,27.12,13.12,38.29c6.41,11.46,15.35,20.75,26.57,27.61
			c11.28,6.91,25.71,10.41,42.9,10.41h166.36c17.17,0,31.6-3.5,42.9-10.41c11.22-6.87,20.16-16.16,26.57-27.61
			c6.26-11.18,10.67-24.06,13.12-38.29c2.39-13.97,3.61-28.53,3.61-43.28c0-14.74-1.21-29.3-3.61-43.28
			C1308.97,171.78,1304.55,158.99,1298.27,148z M1306.23,271.7c-2.36,13.71-6.53,25.91-12.53,36.61
			c-6,10.71-14.24,19.27-24.73,25.69c-10.5,6.43-23.88,9.64-40.14,9.64h-166.36c-16.28,0-29.66-3.21-40.15-9.64
			c-10.5-6.42-18.74-14.98-24.73-25.69c-6-10.7-10.18-22.9-12.53-36.61c-2.36-13.7-3.53-27.83-3.53-42.39
			c0-14.55,1.17-28.68,3.53-42.39c2.35-13.7,6.52-25.8,12.53-36.29c5.99-10.49,14.23-18.95,24.73-25.37
			c10.49-6.42,23.87-9.63,40.15-9.63h166.36c16.27,0,29.65,3.21,40.14,9.63c10.49,6.43,18.73,14.89,24.73,25.37
			c5.99,10.5,10.17,22.59,12.53,36.29c2.35,13.71,3.53,27.84,3.53,42.39C1309.76,243.86,1308.57,258,1306.23,271.7z"/>
	</g>
</g>
</svg>
