<?xml version="1.0" encoding="utf-8"?>
<!-- Generator: Adobe Illustrator 26.5.0, SVG Export Plug-In . SVG Version: 6.00 Build 0)  -->
<svg version="1.1" id="Camada_1" xmlns="http://www.w3.org/2000/svg" xmlns:xlink="http://www.w3.org/1999/xlink" x="0px" y="0px"
	 viewBox="0 0 2715.35 1005.27" style="enable-background:new 0 0 2715.35 1005.27;" xml:space="preserve">
<style type="text/css">
	.st0{fill:#FFFFFF;}
	.st1{display:none;}
	.st2{display:inline;fill:none;stroke:#FFFFFF;stroke-miterlimit:10;}
	.st3{fill:#004662;}
	.st4{fill:url(#SVGID_1_);}
	.st5{display:none;fill:url(#SVGID_00000107551866445369217730000007460156870587079841_);}
	.st6{display:none;fill:url(#SVGID_00000129899783309906554320000005374003801304350371_);}
	.st7{display:none;fill:url(#SVGID_00000004535071503330184540000011913643256097206676_);}
	.st8{fill:url(#SVGID_00000053504027909448861510000000041026772392941495_);}
	.st9{fill:#0A7DA5;}
	.st10{fill:#0B7DAA;}
</style>
<path class="st3" d="M737.19,404.29l173.79-194.75c59.33,82.51,94.27,183.72,94.27,293.1c0,103.09-31.04,198.93-84.28,278.69
	L737.19,575.39C695.81,529.02,695.81,450.66,737.19,404.29z M268.06,404.29L94.27,209.54C34.95,292.05,0,393.26,0,502.64
	c0,103.09,31.04,198.93,84.28,278.69l183.77-205.94C309.44,529.02,309.44,450.66,268.06,404.29z M564.44,489.84
	c0-67.55,23.81-131.44,67.04-179.88l181.14-202.99c-85.4-67-193.03-106.95-309.99-106.95S278.04,39.97,192.64,106.97l181.14,202.99
	c43.23,48.45,67.04,112.33,67.04,179.88c0,67.55-23.81,131.44-67.04,179.89L179.39,887.55c87.39,73.46,200.14,117.71,323.23,117.71
	s235.85-44.25,323.23-117.71L631.48,669.72C588.25,621.28,564.44,557.39,564.44,489.84z M2699.24,7.15l-270.86,299.37l-4.34,4.8
	l4.34,4.8l270.86,299.37h-205.56l-175.75-207.63l-5.46-6.45l-5.46,6.45l-175.75,207.63h-206.43l270.86-299.37l4.34-4.8l-4.34-4.8
	L1924.83,7.15h206.43l175.75,207.63l5.46,6.45l5.46-6.45L2493.68,7.15H2699.24 M2715.35,0h-224.99l-177.89,210.16L2134.57,0h-225.86
	l281.67,311.32l-281.67,311.32h225.86l177.9-210.16l177.89,210.16h224.99l-281.67-311.32L2715.35,0L2715.35,0z M1623.01,7.15
	c18.29,0,39.35,1.02,62.6,3.02c22.99,2,46.71,6.6,70.52,13.68c23.73,7.07,47.26,17.4,69.92,30.71
	c22.37,13.15,42.53,31.04,59.91,53.18c17.42,22.22,31.7,50.23,42.43,83.25c10.76,33.16,16.22,73.64,16.22,120.32
	s-5.46,87.15-16.22,120.31c-10.74,33.05-25.01,61.06-42.43,83.26c-17.38,22.15-37.54,40.04-59.91,53.18
	c-22.65,13.31-46.17,23.64-69.93,30.71c-23.81,7.1-47.53,11.7-70.52,13.68c-23.16,2.01-44.22,3.03-62.61,3.03h-135.17
	c-18.38,0-39.45-1.02-62.61-3.03c-22.98-1.98-46.71-6.58-70.52-13.68c-23.77-7.07-47.3-17.4-69.92-30.71
	c-22.38-13.14-42.54-31.03-59.91-53.18c-17.43-22.2-31.7-50.21-42.43-83.25c-10.76-33.12-16.22-73.6-16.22-120.31
	s5.46-87.19,16.22-120.32c10.72-33.02,24.99-61.04,42.43-83.25c17.38-22.15,37.54-40.04,59.91-53.18
	c22.65-13.3,46.17-23.63,69.92-30.71c23.81-7.08,47.54-11.68,70.52-13.68c23.26-2,44.32-3.02,62.61-3.02H1623.01 M1442.49,473.7
	h225.86c23.32,0,42.91-4.76,58.24-14.14c15.23-9.32,27.36-21.93,36.08-37.49c8.5-15.18,14.49-32.67,17.81-51.99
	c3.25-18.96,4.9-38.73,4.9-58.77c0-20.01-1.65-39.78-4.9-58.76c-3.33-19.33-9.33-36.69-17.85-51.61
	c-8.72-15.24-20.84-27.68-36.05-37c-15.33-9.38-34.92-14.13-58.24-14.13h-225.86c-23.33,0-42.92,4.75-58.24,14.13
	c-15.21,9.31-27.34,21.76-36.05,37c-8.53,14.91-14.53,32.27-17.85,51.61c-3.25,18.9-4.9,38.67-4.9,58.76
	c0,20.11,1.65,39.88,4.9,58.77c3.31,19.33,9.31,36.83,17.81,51.99c8.7,15.55,20.84,28.17,36.08,37.49
	C1399.57,468.94,1419.16,473.7,1442.49,473.7 M1623.01,0h-135.17c-18.61,0-39.68,1.02-63.22,3.05
	c-23.54,2.05-47.53,6.69-71.94,13.95c-24.42,7.27-48.26,17.74-71.51,31.39c-23.26,13.66-43.9,31.98-61.92,54.94
	c-18.03,22.97-32.56,51.45-43.6,85.46c-11.05,34.01-16.57,74.86-16.57,122.52c0,47.67,5.52,88.51,16.57,122.52
	c11.04,34.01,25.58,62.5,43.6,85.46c18.01,22.97,38.66,41.28,61.92,54.94c23.24,13.67,47.09,24.13,71.51,31.39
	c24.42,7.28,48.4,11.93,71.94,13.95c23.55,2.04,44.61,3.05,63.22,3.05h135.17c18.6,0,39.68-1.01,63.22-3.05
	c23.54-2.03,47.53-6.67,71.94-13.95c24.42-7.26,48.25-17.72,71.51-31.39c23.24-13.65,43.89-31.96,61.92-54.94
	c18.01-22.96,32.55-51.45,43.6-85.46c11.04-34.01,16.57-74.85,16.57-122.52c0-47.66-5.53-88.51-16.57-122.52
	c-11.05-34.01-25.59-62.49-43.6-85.46c-18.03-22.95-38.67-41.27-61.92-54.94c-23.26-13.65-47.09-24.12-71.51-31.39
	c-24.42-7.26-48.4-11.91-71.94-13.95C1662.68,1.02,1641.61,0,1623.01,0L1623.01,0z M1442.49,466.54c-22.1,0-40.26-4.36-54.5-13.08
	c-14.25-8.72-25.44-20.34-33.57-34.88c-8.15-14.53-13.82-31.09-17.01-49.7c-3.2-18.6-4.8-37.79-4.8-57.56
	c0-19.76,1.59-38.94,4.8-57.55c3.19-18.6,8.86-35.02,17.01-49.27c8.13-14.24,19.32-25.72,33.57-34.45
	c14.24-8.72,32.4-13.08,54.5-13.08h225.86c22.09,0,40.25,4.36,54.5,13.08c14.24,8.72,25.43,20.21,33.57,34.45
	c8.13,14.25,13.8,30.67,17.01,49.27c3.19,18.61,4.8,37.79,4.8,57.55c0,19.77-1.61,38.96-4.8,57.56c-3.2,18.61-8.87,35.18-17.01,49.7
	c-8.15,14.54-19.33,26.16-33.57,34.88c-14.25,8.72-32.42,13.08-54.5,13.08H1442.49L1442.49,466.54z M1159.08,692.35h315.11v78.89
	h-117.45v234.03h-82.83V771.24h-114.82V692.35z M1849.78,692.35v77.57h-257.7v43.39h257.7v73.19h-257.7v41.19h257.7v77.57h-340.53
	V692.35H1849.78z M2027.28,771.24c-11.11,0-20.16,2.19-27.17,6.57c-7.01,4.38-12.57,10.16-16.66,17.31
	c-4.09,7.16-6.94,15.42-8.54,24.76c-1.61,9.35-2.41,18.99-2.41,28.92c0,9.94,0.8,19.58,2.41,28.93c1.6,9.35,4.45,17.68,8.54,24.98
	c4.09,7.31,9.64,13.15,16.66,17.53c7.01,4.38,16.07,6.58,27.17,6.58h113.95c16.65,0,28.77-4.09,36.38-12.27
	c7.59-8.18,13-20.6,16.21-37.25h88.09c-2.34,19.58-6.79,36.31-13.37,50.18c-6.57,13.88-14.46,25.57-23.67,35.06
	c-9.21,9.5-19.28,17.02-30.24,22.57c-10.96,5.55-22.13,9.86-33.53,12.93c-11.39,3.07-22.5,5.04-33.31,5.92
	c-10.81,0.87-20.6,1.31-29.36,1.31h-68.37c-9.35,0-19.94-0.51-31.78-1.53c-11.83-1.02-23.89-3.35-36.16-7.01
	c-12.27-3.65-24.18-8.91-35.72-15.78c-11.55-6.86-21.91-16.06-31.12-27.61c-9.2-11.54-16.58-25.86-22.13-42.95
	c-5.56-17.09-8.33-37.62-8.33-61.58c0-23.95,2.77-44.48,8.33-61.58c5.55-17.09,12.93-31.4,22.13-42.95
	c9.21-11.54,19.57-20.74,31.12-27.61c11.54-6.86,23.44-12.12,35.72-15.78c12.27-3.65,24.33-5.98,36.16-7.01
	c11.83-1.02,22.42-1.53,31.78-1.53h68.37c8.76,0,18.55,0.44,29.36,1.31c10.81,0.87,21.91,2.85,33.31,5.92
	c11.4,3.07,22.57,7.38,33.53,12.93c10.96,5.55,21.04,13.08,30.24,22.57c9.2,9.5,17.09,21.19,23.67,35.06
	c6.58,13.88,11.02,30.61,13.37,50.18h-88.09c-2.05-15.19-7.16-27.17-15.34-35.94c-8.18-8.77-20.6-13.15-37.25-13.15H2027.28z
	 M2632.52,692.35h82.83v312.92h-82.83V885.62H2399.8v119.65h-82.83V692.35h82.83v120.08h232.72V692.35z"/>
</svg>
