<?xml version="1.0" encoding="utf-8"?>
<!-- Generator: Adobe Illustrator 26.5.0, SVG Export Plug-In . SVG Version: 6.00 Build 0)  -->
<svg version="1.1" id="Camada_1" xmlns="http://www.w3.org/2000/svg" xmlns:xlink="http://www.w3.org/1999/xlink" x="0px" y="0px"
	 viewBox="0 0 1366 1366" style="enable-background:new 0 0 1366 1366;" xml:space="preserve">
<style type="text/css">
	.st0{fill:#FFFFFF;}
	.st1{display:none;}
	.st2{display:inline;fill:none;stroke:#FFFFFF;stroke-miterlimit:10;}
	.st3{fill:#004662;}
	.st4{fill:url(#SVGID_1_);}
	.st5{display:none;fill:url(#SVGID_00000026152000014213026010000004992052679823445645_);}
	.st6{display:none;fill:url(#SVGID_00000166668498783544747650000016607578018514480319_);}
	.st7{display:none;fill:url(#SVGID_00000002344115006618914350000010589319909682803350_);}
	.st8{fill:url(#SVGID_00000160894352336985625530000002067248035259779216_);}
	.st9{fill:#0A7DA5;}
	.st10{fill:#0B7DAA;}
</style>
<g>
	<g>
		<circle class="st0" cx="683" cy="683" r="683"/>
	</g>
	<g>
		<path class="st3" d="M1001.75,549.35l236.15-264.64C1318.51,396.83,1366,534.37,1366,683c0,140.09-42.19,270.32-114.53,378.7
			l-249.72-279.85C945.52,718.84,945.52,612.37,1001.75,549.35z M364.25,549.35L128.1,284.71C47.49,396.83,0,534.37,0,683
			c0,140.09,42.19,270.32,114.53,378.7l249.72-279.85C420.48,718.84,420.48,612.37,364.25,549.35z M766.99,665.6
			c0-91.8,32.35-178.61,91.1-244.44l246.14-275.83C988.19,54.29,841.93,0,683,0S377.81,54.29,261.77,145.33l246.14,275.83
			c58.75,65.83,91.1,152.64,91.1,244.44c0,91.8-32.35,178.61-91.1,244.44l-264.14,296C362.51,1305.86,515.73,1366,683,1366
			s320.49-60.14,439.23-159.96l-264.14-296C799.35,844.21,766.99,757.4,766.99,665.6z"/>
	</g>
</g>
</svg>
