<?xml version="1.0" encoding="utf-8"?>
<!-- Generator: Adobe Illustrator 26.5.0, SVG Export Plug-In . SVG Version: 6.00 Build 0)  -->
<svg version="1.1" id="Camada_1" xmlns="http://www.w3.org/2000/svg" xmlns:xlink="http://www.w3.org/1999/xlink" x="0px" y="0px"
	 viewBox="0 0 1366 1366" style="enable-background:new 0 0 1366 1366;" xml:space="preserve">
<style type="text/css">
	.st0{fill:#FFFFFF;}
	.st1{display:none;}
	.st2{display:inline;fill:none;stroke:#FFFFFF;stroke-miterlimit:10;}
	.st3{fill:#00426b;}
	.st4{fill:url(#SVGID_1_);}
	.st5{display:none;fill:url(#SVGID_00000026874443647425717920000000201308121783199931_);}
	.st6{display:none;fill:url(#SVGID_00000137122608203646655970000017109579683593079172_);}
	.st7{display:none;fill:url(#SVGID_00000183243511524464812520000011658906643817256102_);}
	.st8{fill:url(#SVGID_00000152253537340136979630000006478281597558041232_);}
	.st9{fill:#0A7DA5;}
	.st10{fill:#0B7DAA;}
</style>
<g>
	<g>
		<circle class="st0" cx="683" cy="683" r="683"/>
	</g>
	<g>
		<path class="st3" d="M977.48,559.53l218.17-244.49C1270.13,418.62,1314,545.68,1314,683c0,129.42-38.97,249.74-105.81,349.87
			L977.48,774.33C925.53,716.11,925.53,617.74,977.48,559.53z M388.52,559.53L170.35,315.04C95.87,418.62,52,545.68,52,683
			c0,129.42,38.97,249.74,105.81,349.87l230.71-258.54C440.47,716.11,440.47,617.74,388.52,559.53z M760.6,666.93
			c0-84.81,29.89-165.01,84.16-225.83l227.4-254.83C964.95,102.16,829.83,52,683,52s-281.95,50.16-389.16,134.27l227.4,254.83
			c54.27,60.82,84.16,141.02,84.16,225.83c0,84.81-29.89,165.01-84.16,225.83l-244.03,273.47C386.91,1258.44,528.47,1314,683,1314
			s296.09-55.56,405.79-147.78L844.76,892.76C790.49,831.93,760.6,751.73,760.6,666.93z"/>
	</g>
</g>
</svg>
