<?xml version="1.0" encoding="utf-8"?>
<!-- Generator: Adobe Illustrator 26.5.0, SVG Export Plug-In . SVG Version: 6.00 Build 0)  -->
<svg version="1.1" id="Camada_1" xmlns="http://www.w3.org/2000/svg" xmlns:xlink="http://www.w3.org/1999/xlink" x="0px" y="0px"
	 viewBox="0 0 1972 790" style="enable-background:new 0 0 1972 790;" xml:space="preserve">
<style type="text/css">
	.st0{fill:none;stroke:#54ABDB;stroke-width:5;}
</style>
<path class="st0" d="M1966.4,2.5l-353.1,390.8l-1.5,1.7l1.5,1.7l353.1,390.8h-278.3l-224.7-265.8l-1.9-2.3l-1.9,2.3l-224.7,265.8
	H955.5l353.1-390.8l1.5-1.7l-1.5-1.7L955.5,2.5h279.4l224.7,265.8l1.9,2.3l1.9-2.3L1688.1,2.5H1966.4z"/>
<path class="st0" d="M981.1,240.3c13.9,42.8,20.9,94.4,20.9,154.7s-7,111.9-20.9,154.7c-13.9,42.9-32.2,78.8-54.8,107.7
	c-22.7,28.9-48.6,51.9-77.8,69.1h0c-29.3,17.2-59.3,30.4-90,39.6h0c-30.8,9.2-61,15-90.7,17.6h0c-29.8,2.6-56.4,3.9-79.9,3.9H416.6
	c-23.5,0-50.1-1.3-79.9-3.9h0c-29.6-2.6-59.9-8.4-90.7-17.6h0c-30.7-9.2-60.8-22.3-90-39.6l0,0c-29.2-17.1-55.1-40.2-77.8-69.1l0,0
	c-22.6-28.8-40.9-64.7-54.8-107.7l0,0C9.5,506.8,2.5,455.3,2.5,395s7-111.9,20.9-154.7l0,0c13.9-42.9,32.2-78.8,54.8-107.7
	c22.6-28.9,48.6-51.9,77.8-69.1v0C185.3,46.3,215.3,33.1,246,24c30.8-9.2,61-15,90.7-17.6c29.8-2.6,56.4-3.9,79.9-3.9h171.3
	c23.5,0,50.1,1.3,79.9,3.9c29.7,2.6,59.9,8.4,90.7,17.6c30.7,9.2,60.7,22.4,90.1,39.6c29.2,17.2,55.1,40.2,77.8,69.1
	C948.8,161.5,967.1,197.4,981.1,240.3z M981.1,240.3l2.4-0.8 M715.7,577.5L715.7,577.5c18.4-11.3,32.9-26.3,43.4-45.2l0,0
	c10.5-18.7,17.7-40,21.8-63.9l0,0c4.1-23.7,6.1-48.2,6.1-73.4c0-25.2-2-49.7-6.1-73.4l0,0c-4.1-23.8-11.4-45-21.8-63.3l0,0
	c-10.5-18.4-25-33.3-43.4-44.6l0,0c-18.6-11.4-42.1-17-70.4-17H359.1c-28.3,0-51.8,5.6-70.4,17c-18.4,11.3-32.9,26.2-43.4,44.6
	l2.2,1.2l-2.2-1.2c-10.5,18.4-17.8,39.5-21.8,63.3c-4.1,23.8-6.1,48.2-6.1,73.5c0,25.2,2,49.7,6.1,73.4
	c4.1,23.9,11.3,45.1,21.8,63.9c10.5,18.8,25,33.9,43.4,45.2c18.6,11.4,42,17,70.4,17h286.2C673.6,594.4,697.1,588.8,715.7,577.5z"/>
</svg>
