<svg width="1972" height="790" viewBox="0 0 1972 790" fill="none" xmlns="http://www.w3.org/2000/svg">
<path d="M1966.37 2.5L1613.23 393.317L1611.71 394.993L1613.23 396.669L1966.37 787.5H1688.07L1463.4 521.738L1461.49 519.48L1459.58 521.738L1234.92 787.5H955.52L1308.66 396.669L1310.18 394.993L1308.66 393.317L955.506 2.5H1234.9L1459.57 268.262L1461.48 270.52L1463.39 268.262L1688.07 2.5H1966.37Z" stroke="#54ABDB" stroke-width="5"/>
<path d="M981.062 240.3C994.943 283.141 1001.94 334.688 1001.94 394.993C1001.94 455.298 994.943 506.845 981.062 549.686C967.122 592.624 948.829 628.496 926.227 657.346C903.557 686.275 877.632 709.287 848.47 726.432L848.469 726.432C819.166 743.68 789.155 756.867 758.42 766.019L758.418 766.019C727.63 775.215 697.405 781.065 667.753 783.633L667.752 783.633C637.976 786.227 611.332 787.5 587.857 787.5H416.58C393.077 787.5 366.46 786.227 336.684 783.633L336.682 783.633C307.032 781.079 276.807 775.215 246.018 766.019L246.016 766.019C215.281 756.867 185.256 743.68 155.968 726.433L155.965 726.431C126.777 709.287 100.866 686.261 78.2094 657.346L78.2086 657.345C55.5786 628.495 37.2866 592.624 23.3742 549.686L23.3739 549.685C9.4793 506.846 2.5 455.299 2.5 394.993C2.5 334.687 9.4793 283.14 23.3739 240.301L23.3742 240.3C37.2861 197.364 55.592 161.519 78.2095 132.64C100.852 103.739 126.777 80.7127 155.966 63.5543L155.966 63.5542C185.256 46.3344 215.282 33.1326 246.017 23.9669C276.807 14.799 307.033 8.93494 336.684 6.35259C366.462 3.78728 393.078 2.5 416.58 2.5H587.857C611.331 2.5 637.976 3.78735 667.755 6.35279C697.405 8.93526 727.631 14.7993 758.42 23.9672C789.155 33.1328 819.167 46.3344 848.471 63.5544C877.632 80.727 903.557 103.739 926.226 132.639C948.83 161.518 967.136 197.363 981.062 240.3ZM981.062 240.3L983.44 239.529M981.062 240.3C981.062 240.3 981.062 240.3 981.062 240.301L983.44 239.529M983.44 239.529C997.424 282.686 1004.44 334.507 1004.44 394.993C1004.44 455.479 997.424 507.3 983.44 550.457C969.429 593.613 951.014 629.761 928.195 658.888L983.44 239.529ZM715.685 577.474L715.686 577.473C734.086 566.184 748.567 551.125 759.099 532.312L759.1 532.31C769.564 513.593 776.829 492.308 780.924 468.443L780.925 468.442C784.989 444.704 787.034 420.211 787.034 394.993C787.034 369.775 784.989 345.31 780.925 321.544L780.924 321.542C776.829 297.705 769.562 276.581 759.09 258.205L759.088 258.203C748.554 239.772 734.075 224.891 715.686 213.608L715.685 213.607C697.12 202.235 673.616 196.64 645.318 196.64H359.132C330.808 196.64 307.303 202.234 288.765 213.607C270.347 224.891 255.882 239.773 245.361 258.204L247.533 259.443L245.361 258.204C234.875 276.58 227.607 297.69 223.526 321.543C219.447 345.311 217.417 369.776 217.417 394.993C217.417 420.209 219.447 444.702 223.526 468.442C227.606 492.306 234.872 513.592 245.35 532.31C255.868 551.138 270.35 566.198 288.766 577.474C307.317 588.847 330.807 594.442 359.132 594.442H645.318C673.63 594.442 697.12 588.847 715.685 577.474Z" stroke="#54ABDB" stroke-width="5"/>
</svg>
